<svg width="48" height="48" viewBox="0 0 48 48" fill="none" xmlns="http://www.w3.org/2000/svg">
<mask id="mask0_724_1101" style="mask-type:alpha" maskUnits="userSpaceOnUse" x="0" y="0" width="48" height="48">
<rect width="48" height="48" fill="white"/>
</mask>
<g mask="url(#mask0_724_1101)">
<path fill-rule="evenodd" clip-rule="evenodd" d="M32.1803 0L19.6239 34.5232L10.7512 34.5232C10.7512 34.5232 8.83208 34.7835 7.63057 33.4018C6.42907 32.02 7.23065 30.1577 7.23065 30.1577L12.7042 15.15C12.7042 15.15 12.9571 14.6201 13.598 14.1176C14.2621 13.597 15.0599 13.4969 15.0599 13.4969L18.3407 13.4768L22.1972 13.4621L27.0932 0H32.1803ZM17.2018 16.6351L18.3167 16.6353L12.9656 31.3486L11.8959 31.3488L17.2018 16.6351Z" fill="#F3F7F8"/>
<path d="M18.3167 16.6353L17.2018 16.6351L11.8959 31.3488L12.9656 31.3486L18.3167 16.6353Z" fill="url(#paint0_linear_724_1101)"/>
<path fill-rule="evenodd" clip-rule="evenodd" d="M15.8599 48L28.4156 13.4763L37.2882 13.4763C37.2882 13.4763 39.2074 13.216 40.4089 14.5977C41.6104 15.9795 40.8088 17.8418 40.8088 17.8418L35.3352 32.8495C35.3352 32.8495 35.0823 33.3793 34.4414 33.8818C33.7773 34.4025 32.9796 34.5026 32.9796 34.5026L29.6987 34.5226L25.8422 34.5374L20.9462 47.9995L15.8599 48ZM30.8376 31.3644L29.7227 31.3642L35.0738 16.6509L36.1435 16.6507L30.8376 31.3644Z" fill="#F3F7F8"/>
<path d="M29.7227 31.3642L30.8376 31.3644L36.1435 16.6507L35.0738 16.6509L29.7227 31.3642Z" fill="url(#paint1_linear_724_1101)"/>
</g>
<defs>
<linearGradient id="paint0_linear_724_1101" x1="24.0197" y1="0" x2="24.0197" y2="48" gradientUnits="userSpaceOnUse">
<stop stop-color="#F2E205"/>
<stop offset="1" stop-color="#F20505"/>
</linearGradient>
<linearGradient id="paint1_linear_724_1101" x1="24.0197" y1="48" x2="24.0197" y2="0" gradientUnits="userSpaceOnUse">
<stop stop-color="#F2E205"/>
<stop offset="1" stop-color="#F20505"/>
</linearGradient>
</defs>
</svg>
